{"title":"[ShepardTDS] Heaven's Lost Property Season 1 Dual Audio [BD 720p","uid":12315040,"size":3432611815,"categoryP":"video","categoryS":"tv_shows","magnet":"?xt=urn:btih:4fcd3f65eed8348e769574ca19d9ec67a372c7e4&amp;dn=%5BShepardTDS%5D+Heaven%27s+Lost+Property+Season+1+Dual+Audio+%5BBD+720p&amp;tr=udp%3A%2F%2Ftracker.openbittorrent.com%3A80&amp;tr=udp%3A%2F%2Fopen.demonii.com%3A1337&amp;tr=udp%3A%2F%2Ftracker.coppersurfer.tk%3A6969&amp;tr=udp%3A%2F%2Fexodus.desync.com%3A6969","seeders":1,"leechers":0,"uploader":"ShepardTDS","files":14,"time":1440977632,"description":"General\n\nFormat : Matroska\nFile size : 230 MiB\nDuration : 23mn 42s\nOverall bit rate : 1 359 Kbps\nEncoded date : UTC 2015-08-30 04:49:00\nWriting application : mkvmerge v7.7.0 ('Six Voices') 32bit built on Feb 28 2015 23:23:00\nWriting library : libebml v1.3.1 + libmatroska v1.4.2\n\nVideo\nID : 1\nFormat : AVC\nFormat/Info : Advanced Video Codec\nFormat profile : &lt;a class=&quot;__cf_email__&quot; href=&quot;/cdn-cgi/l/email-protection&quot; data-cfemail=&quot;5e163739361e126b706e&quot;&gt;[email&amp;#160;protected]&lt;/a&gt;&lt;script data-cfhash='f9e31' type=&quot;text/javascript&quot;&gt;\n/* &lt;![CDATA[ */!function(){try{var t=&quot;currentScript&quot;in document?document.currentScript:function(){for(var t=document.getElementsByTagName(&quot;script&quot;),e=t.length;e--;)if(t[e].getAttribute(&quot;data-cfhash&quot;))return t[e]}();if(t&amp;&amp;t.previousSibling){var e,r,n,i,c=t.previousSibling,a=c.getAttribute(&quot;data-cfemail&quot;);if(a){for(e=&quot;&quot;,r=parseInt(a.substr(0,2),16),n=2;a.length-n;n+=2)i=parseInt(a.substr(n,2),16)^r,e+=String.fromCharCode(i);e=document.createTextNode(e),c.parentNode.replaceChild(e,c)}t.parentNode.removeChild(t);}}catch(u){}}()/* ]]&gt; */&lt;/script&gt;\nFormat settings, CABAC : Yes\nFormat settings, ReFrames : 16 frames\nCodec ID : V_MPEG4/ISO/AVC\nDuration : 23mn 42s\nBit rate : 820 Kbps\nNominal bit rate : 750 Kbps\nWidth : 1 280 pixels\nHeight : 712 pixels\nDisplay aspect ratio : 16:9\nFrame rate : 23.976 fps\nColor space : YUV\nChroma subsampling : 4:2:0\nBit depth : 8 bits\nScan type : Progressive\nBits/(Pixel*Frame) : 0.038\nStream size : 139 MiB (60%)\nWriting library : x264 core 146 r2538 121396c\n\nAudio #1\nID : 2\nFormat : AC-3\nFormat/Info : Audio Coding 3\nMode extension : CM (complete main)\nCodec ID : A_AC3\nDuration : 23mn 42s\nBit rate mode : Constant\nBit rate : 256 Kbps\nChannel(s) : 6 channels\nChannel positions : Front: L C R, Side: L R, LFE\nSampling rate : 48.0 KHz\nBit depth : 16 bits\nCompression mode : Lossy\nStream size : 43.4 MiB (19%)\nLanguage : English\n\nAudio #2\nID : 3\nFormat : AC-3\nFormat/Info : Audio Coding 3\nMode extension : CM (complete main)\nCodec ID : A_AC3\nDuration : 23mn 42s\nBit rate mode : Constant\nBit rate : 256 Kbps\nChannel(s) : 2 channels\nChannel positions : Front: L R\nSampling rate : 48.0 KHz\nBit depth : 16 bits\nCompression mode : Lossy\nStream size : 43.4 MiB (19%)\nLanguage : Japanese\n\nText #1\nID : 4\nFormat : ASS\nCodec ID : S_TEXT/ASS\nCodec ID/Info : Advanced Sub Station Alpha\nCompression mode : Lossless\nLanguage : English\n\nText #2\nID : 5\nFormat : PGS\nMuxing mode : zlib\nCodec ID : S_HDMV/PGS\nCodec ID/Info : The same subtitle format used on BDs/HD-DVDs\nLanguage : Japanese\n\nText #3\nID : 6\nFormat : PGS\nMuxing mode : zlib\nCodec ID : S_HDMV/PGS\nCodec ID/Info : The same subtitle format used on BDs/HD-DVDs\nLanguage : English","torrent":{"xt":"urn:btih:4fcd3f65eed8348e769574ca19d9ec67a372c7e4","amp;dn":"%5BShepardTDS%5D+Heaven%27s+Lost+Property+Season+1+Dual+Audio+%5BBD+720p","amp;tr":["udp%3A%2F%2Ftracker.openbittorrent.com%3A80","udp%3A%2F%2Fopen.demonii.com%3A1337","udp%3A%2F%2Ftracker.coppersurfer.tk%3A6969","udp%3A%2F%2Fexodus.desync.com%3A6969"],"infoHash":"4fcd3f65eed8348e769574ca19d9ec67a372c7e4","infoHashBuffer":{"type":"Buffer","data":[79,205,63,101,238,216,52,142,118,149,116,202,25,217,236,103,163,114,199,228]},"announce":[],"urlList":[]}}